<?xml version="1.0" encoding="UTF-8"?>
<svg width="722px" height="363px" viewBox="0 0 722 363" version="1.1" xmlns="http://www.w3.org/2000/svg" xmlns:xlink="http://www.w3.org/1999/xlink">
    <!-- Generator: Sketch 46.2 (44496) - http://www.bohemiancoding.com/sketch -->
    <title>SM-logo</title>
    <desc>Created with Sketch.</desc>
    <defs></defs>
    <g id="Page-1" stroke="none" stroke-width="1" fill="none" fill-rule="evenodd">
        <g id="Group-4" transform="translate(-539.000000, -552.000000)" fill="#342c5f">
            <g id="SM-logo" transform="translate(539.000000, 552.000000)">
                <path d="M89.2436161,109.91589 C89.2436161,86.1701406 80.7846291,78.3364914 62.8999138,70.5028423 L56.3744095,67.8100254 C47.1903665,63.8932008 45.9819398,58.7523686 45.9819398,50.1843148 C45.9819398,40.6370549 50.5739613,26.4385659 61.9331724,26.4385659 C70.8755301,26.4385659 73.7757542,33.0482073 73.5340688,44.798681 C73.5340688,46.2674903 74.5008102,47.0018949 75.9509223,46.7570933 L96.0986295,47.6473433 C97.3070562,47.1577402 98.5154829,46.4233356 98.5154829,44.9545264 C99.965595,17.5367544 88.7602454,0 64.3500258,0 C30.2723926,0 16.2546427,29.8657874 16.2546427,57.7731624 C16.2546427,77.1124838 21.5717202,86.9045452 40.6648623,94.9829959 L47.1903665,97.6758128 C57.0994656,101.837439 59.0329483,106.978271 59.0329483,117.015134 C59.0329483,127.5416 54.1992415,144.432906 40.6648623,144.432906 C30.2723926,144.432906 25.5265095,135.775896 26.4932509,125.983835 C26.7349362,124.515026 25.7681948,123.535819 24.3180828,123.780621 L2.47857818,123.379974 C1.02846613,123.624776 0.545095441,124.603982 0.303410099,126.072791 C-2.35512867,152.511357 12.6293626,170.871472 38.4896942,170.871472 C72.8090128,170.871472 89.2436161,139.047272 89.2436161,109.91589 Z M143.066167,168.292364 L118.102918,168.292364 C116.689904,168.292364 115.747895,167.338208 115.983397,165.906975 L138.827125,34.2335474 C139.062627,33.2793922 138.591623,32.8023145 137.649613,32.8023145 L113.628374,32.8023145 C112.21536,32.8023145 111.508853,31.8481592 111.744355,30.4169263 L115.747895,8.47135501 C115.983397,7.04012209 116.925407,6.08596682 118.338421,6.08596682 L198.880223,6.08596682 C200.293237,6.08596682 201.235247,7.04012209 200.999744,8.47135501 L196.996205,30.4169263 C196.760702,31.8481592 195.58319,32.8023145 194.170176,32.8023145 L170.148937,32.8023145 C169.206928,32.8023145 168.735923,33.2793922 168.500421,34.2335474 L145.656693,165.906975 C145.421191,167.338208 144.479181,168.292364 143.066167,168.292364 Z M170.46294,165.906975 L231.458048,8.47135501 C231.929053,7.04012209 232.871062,6.08596682 234.284076,6.08596682 L260.660339,6.08596682 C262.073353,6.08596682 263.015362,7.04012209 263.015362,8.47135501 L268.431916,165.906975 C268.431916,167.338208 267.725409,168.292364 266.312395,168.292364 L241.584649,168.292364 C239.936132,168.292364 239.229625,167.338208 239.229625,165.906975 L238.994123,135.851084 L210.027334,135.851084 L199.429729,165.906975 C198.958724,167.338208 198.252217,168.292364 196.603701,168.292364 L172.111457,168.292364 C170.698443,168.292364 169.991935,167.338208 170.46294,165.906975 Z M218.269917,112.712819 L239.229625,112.712819 L239.465128,54.9864247 L238.758621,54.9864247 L218.269917,112.712819 Z M324.036637,168.292364 L299.073388,168.292364 C297.660374,168.292364 296.718365,167.338208 296.953867,165.906975 L319.797595,34.2335474 C320.033097,33.2793922 319.562092,32.8023145 318.620083,32.8023145 L294.598844,32.8023145 C293.18583,32.8023145 292.479323,31.8481592 292.714825,30.4169263 L296.718365,8.47135501 C296.953867,7.04012209 297.895877,6.08596682 299.308891,6.08596682 L379.850693,6.08596682 C381.263707,6.08596682 382.205717,7.04012209 381.970214,8.47135501 L377.966674,30.4169263 C377.731172,31.8481592 376.55366,32.8023145 375.140646,32.8023145 L351.119407,32.8023145 C350.177397,32.8023145 349.706393,33.2793922 349.47089,34.2335474 L326.627163,165.906975 C326.39166,167.338208 325.449651,168.292364 324.036637,168.292364 Z M371.581944,165.906975 L398.664714,8.47135501 C398.900216,7.04012209 399.842226,6.08596682 401.25524,6.08596682 L468.844413,6.08596682 C470.257427,6.08596682 471.199437,7.04012209 470.963934,8.47135501 L466.960394,30.4169263 C466.724892,31.8481592 465.54738,32.8023145 464.134366,32.8023145 L425.511981,32.8023145 C424.805474,32.8023145 424.098967,33.2793922 424.098967,34.2335474 L417.740404,71.684142 C417.504902,72.6382973 417.975906,73.1153749 418.682413,73.1153749 L451.888244,73.1153749 C453.301258,73.1153749 454.007765,74.0695302 453.772263,75.5007631 L450.004225,97.2077956 C449.768723,98.6390285 448.591211,99.5931838 447.4137,99.5931838 L414.207869,99.5931838 C413.265859,99.5931838 412.794855,100.070261 412.559352,101.024417 L405.729784,140.144783 C405.494282,141.098938 405.965287,141.576016 406.671794,141.576016 L445.294179,141.576016 C446.707193,141.576016 447.4137,142.530171 447.178197,143.961404 L443.41016,165.906975 C443.174657,167.338208 442.232648,168.292364 440.819634,168.292364 L373.465963,168.292364 C372.288451,168.292364 371.346442,167.338208 371.581944,165.906975 Z" id="STATE"></path>
                <path d="M5.03667669,358.508596 L32.6164982,202.491404 C32.8542552,201.073066 33.8052836,200.127507 35.2318261,200.127507 L59.4830484,200.127507 C61.6228621,200.127507 62.8116475,200.836676 63.0494046,202.491404 L70.8953883,288.30086 L71.8464166,288.30086 L110.363064,202.491404 C111.076335,200.836676 112.26512,200.127507 114.404934,200.127507 L139.131671,200.127507 C140.558213,200.127507 141.509242,201.073066 141.271484,202.491404 L113.453906,358.508596 C113.216149,359.926934 112.26512,360.872493 110.838578,360.872493 L88.9649265,360.872493 C87.538384,360.872493 86.5873557,359.926934 86.8251127,358.508596 L103.468108,264.898281 L102.279323,264.898281 L73.5107162,329.905444 C72.7974449,331.323782 71.8464166,332.269341 70.182117,332.269341 L57.5809917,332.269341 C55.9166921,332.269341 55.2034209,331.323782 55.2034209,329.905444 L49.2594939,264.898281 L48.0707085,264.898281 L31.1899557,358.508596 C30.9521986,359.926934 30.0011703,360.872493 28.8123848,360.872493 L6.93873334,360.872493 C5.74994794,360.872493 4.79891961,359.926934 5.03667669,358.508596 Z M132.672603,358.508596 L194.251687,202.491404 C194.727202,201.073066 195.67823,200.127507 197.104772,200.127507 L223.733566,200.127507 C225.160108,200.127507 226.111136,201.073066 226.111136,202.491404 L231.579549,358.508596 C231.579549,359.926934 230.866278,360.872493 229.439736,360.872493 L204.475242,360.872493 C202.810942,360.872493 202.097671,359.926934 202.097671,358.508596 L201.859914,328.723496 L172.615793,328.723496 L161.916724,358.508596 C161.44121,359.926934 160.727939,360.872493 159.063639,360.872493 L134.336903,360.872493 C132.91036,360.872493 132.197089,359.926934 132.672603,358.508596 Z M180.937291,305.793696 L202.097671,305.793696 L202.335428,248.587393 L201.622157,248.587393 L180.937291,305.793696 Z M280.702804,360.872493 C282.129347,360.872493 283.080375,359.926934 283.318132,358.508596 L306.380569,228.02149 C306.618326,227.075931 307.09384,226.603152 308.044868,226.603152 L332.296091,226.603152 C333.722633,226.603152 334.911419,225.657593 335.149176,224.239255 L339.191046,202.491404 C339.428803,201.073066 338.477775,200.127507 337.051232,200.127507 L255.73831,200.127507 C254.311768,200.127507 253.36074,201.073066 253.122983,202.491404 L249.081112,224.239255 C248.843355,225.657593 249.556626,226.603152 250.983169,226.603152 L275.234391,226.603152 C276.185419,226.603152 276.660934,227.075931 276.423177,228.02149 L253.36074,358.508596 C253.122983,359.926934 254.074011,360.872493 255.500553,360.872493 L280.702804,360.872493 Z M381.696729,360.872493 L356.494478,360.872493 C355.067936,360.872493 354.116907,359.926934 354.354664,358.508596 L377.417101,228.02149 C377.654858,227.075931 377.179344,226.603152 376.228316,226.603152 L351.977094,226.603152 C350.550551,226.603152 349.83728,225.657593 350.075037,224.239255 L354.116907,202.491404 C354.354664,201.073066 355.305693,200.127507 356.732235,200.127507 L438.045157,200.127507 C439.4717,200.127507 440.422728,201.073066 440.184971,202.491404 L436.1431,224.239255 C435.905343,225.657593 434.716558,226.603152 433.290015,226.603152 L409.038793,226.603152 C408.087765,226.603152 407.612251,227.075931 407.374494,228.02149 L384.312057,358.508596 C384.0743,359.926934 383.123271,360.872493 381.696729,360.872493 Z M429.697242,358.508596 L457.039306,202.491404 C457.277063,201.073066 458.228092,200.127507 459.654634,200.127507 L527.890916,200.127507 C529.317459,200.127507 530.268487,201.073066 530.03073,202.491404 L525.98886,224.239255 C525.751103,225.657593 524.562317,226.603152 523.135775,226.603152 L484.143613,226.603152 C483.430342,226.603152 482.717071,227.075931 482.717071,228.02149 L476.29763,265.13467 C476.059873,266.080229 476.535387,266.553009 477.248658,266.553009 L510.772407,266.553009 C512.198949,266.553009 512.91222,267.498567 512.674463,268.916905 L508.87035,290.428367 C508.632593,291.846705 507.443807,292.792264 506.255022,292.792264 L472.731274,292.792264 C471.780245,292.792264 471.304731,293.265043 471.066974,294.210602 L464.172019,332.97851 C463.934262,333.924069 464.409776,334.396848 465.123047,334.396848 L504.115208,334.396848 C505.541751,334.396848 506.255022,335.342407 506.017265,336.760745 L502.213152,358.508596 C501.975395,359.926934 501.024366,360.872493 499.597824,360.872493 L431.599298,360.872493 C430.410513,360.872493 429.459485,359.926934 429.697242,358.508596 Z M624.420292,236.531519 C624.420292,261.116046 615.62328,280.972779 598.980284,290.664756 L607.301782,358.508596 C607.539539,359.690544 607.064025,360.872493 605.875239,360.872493 L579.959717,360.872493 C578.533175,360.872493 577.582147,360.399713 577.344389,358.981375 L571.638219,297.047278 L561.414665,297.047278 C560.463637,297.047278 559.750365,297.520057 559.750365,298.465616 L548.81354,358.508596 C548.575783,359.926934 547.624754,360.872493 546.198212,360.872493 L520.995961,360.872493 C519.807176,360.872493 518.856147,359.926934 519.093904,358.508596 L546.673726,202.491404 C546.911483,201.073066 547.862511,200.127507 549.289054,200.127507 L584.477102,200.127507 C608.966081,200.127507 624.420292,209.346705 624.420292,236.531519 Z M594.225142,240.313754 C594.225142,230.148997 589.470001,225.893983 580.435232,225.893983 L573.778033,225.893983 C572.827005,225.893983 572.351491,226.366762 572.113734,227.312321 L564.505507,270.808023 C564.505507,271.753582 564.743264,272.226361 565.694292,272.226361 L574.966819,272.226361 C588.994486,272.226361 594.225142,255.679083 594.225142,240.313754 Z M709.775084,304.138968 C709.775084,332.269341 693.607602,363 659.846097,363 C634.406089,363 619.66515,345.270774 622.280478,319.740688 C622.518235,318.32235 622.993749,317.376791 624.420292,317.140401 L648.909271,314.540115 C650.335813,314.303725 651.286842,315.249284 651.049085,316.667622 C650.098056,326.123209 651.762356,337.469914 661.98591,337.469914 C675.300307,337.469914 680.055449,321.159026 680.055449,310.994269 C680.055449,301.302292 678.153392,296.338109 668.405352,292.319484 L661.98591,289.719198 C643.203101,281.918338 637.972445,272.462751 637.972445,253.787966 C637.972445,226.839542 651.762356,198 685.286104,198 C709.29957,198 723.327238,211.946991 721.900695,238.422636 C721.900695,239.840974 720.71191,240.550143 719.523124,241.022923 L696.698444,243.15043 C695.271902,243.386819 694.320874,242.67765 694.320874,241.259312 C694.558631,229.912607 691.705546,223.530086 682.908534,223.530086 C671.733951,223.530086 667.216566,237.240688 667.216566,246.459885 C667.216566,254.733524 668.405352,259.697708 677.440121,263.479943 L683.859562,266.080229 C701.453586,273.644699 709.775084,281.209169 709.775084,304.138968 Z" id="MATTERS"></path>
            </g>
        </g>
    </g>
</svg>