<?xml version="1.0" encoding="UTF-8"?>
<svg width="70px" height="36px" viewBox="0 0 70 36" version="1.1" xmlns="http://www.w3.org/2000/svg" xmlns:xlink="http://www.w3.org/1999/xlink">
    <defs></defs>
    <g id="Page-1" stroke="none" stroke-width="1" fill="none" fill-rule="evenodd">
        <g id="Landing_Video_Modal" transform="translate(-71.000000, -22.000000)" fill="#000000">
            <g id="HEADER">
                <g id="SM-logo" transform="translate(71.000000, 22.000000)">
                    <path d="M8.71593703,10.9355301 C8.71593703,8.5730659 7.88979393,7.79369628 6.14309137,7.01432665 L5.50578097,6.74641834 C4.60882561,6.35673352 4.49080516,5.84527221 4.49080516,4.99283668 C4.49080516,4.04297994 4.93928285,2.63037249 6.04867501,2.63037249 C6.92202629,2.63037249 7.20527536,3.28796562 7.18167127,4.45702006 C7.18167127,4.60315186 7.27608762,4.67621777 7.41771215,4.65186246 L9.38542878,4.74043342 C9.50344922,4.69172282 9.62146967,4.61865692 9.62146967,4.47252511 C9.7630942,1.74473141 8.66872885,0 6.2847159,0 C2.9565394,0 1.58750226,2.9713467 1.58750226,5.747851 C1.58750226,7.67191977 2.10679221,8.64613181 3.97151521,9.44985673 L4.60882561,9.71776504 C5.57659324,10.1318052 5.76542595,10.6432665 5.76542595,11.6418338 C5.76542595,12.6891117 5.29334418,14.3696275 3.97151521,14.3696275 C2.9565394,14.3696275 2.4930349,13.5083417 2.58745125,12.5341297 C2.61105534,12.3879979 2.51663899,12.2905767 2.37501446,12.314932 L0.242069207,12.2750716 C0.100444675,12.2994269 0.0532364974,12.3968481 0.0296324088,12.5429799 C-0.230012566,15.1733524 1.23344093,17 3.75907841,17 C7.110859,17 8.71593703,13.8338109 8.71593703,10.9355301 Z M13.9724919,16.7434046 L11.5344676,16.7434046 C11.3964662,16.7434046 11.3044653,16.6484757 11.3274656,16.5060823 L13.5584878,3.40589508 C13.581488,3.31096619 13.5354876,3.26350174 13.4434866,3.26350174 L11.0974633,3.26350174 C10.9594619,3.26350174 10.8904612,3.16857285 10.9134614,3.02617951 L11.3044653,0.842814974 C11.3274656,0.700421634 11.4194665,0.605492741 11.5574679,0.605492741 L19.4235462,0.605492741 C19.5615476,0.605492741 19.6535485,0.700421634 19.6305483,0.842814974 L19.2395444,3.02617951 C19.2165442,3.16857285 19.101543,3.26350174 18.9635416,3.26350174 L16.6175183,3.26350174 C16.5255174,3.26350174 16.4795169,3.31096619 16.4565167,3.40589508 L14.2254944,16.5060823 C14.2024942,16.6484757 14.1104933,16.7434046 13.9724919,16.7434046 Z M16.6481852,16.5060823 L22.6052446,0.842814974 C22.6512451,0.700421634 22.743246,0.605492741 22.8812473,0.605492741 L25.457273,0.605492741 C25.5952744,0.605492741 25.6872753,0.700421634 25.6872753,0.842814974 L26.2162806,16.5060823 C26.2162806,16.6484757 26.1472799,16.7434046 26.0092785,16.7434046 L23.5942545,16.7434046 C23.4332528,16.7434046 23.3642522,16.6484757 23.3642522,16.5060823 L23.3412519,13.5158222 L20.5122237,13.5158222 L19.4772134,16.5060823 C19.431213,16.6484757 19.3622123,16.7434046 19.2012107,16.7434046 L16.8091868,16.7434046 C16.6711855,16.7434046 16.6021848,16.6484757 16.6481852,16.5060823 Z M21.3172318,11.2137965 L23.3642522,11.2137965 L23.3872524,5.47059851 L23.3182517,5.47059851 L21.3172318,11.2137965 Z M31.6468902,16.7434046 L29.2088659,16.7434046 C29.0708646,16.7434046 28.9788637,16.6484757 29.0018639,16.5060823 L31.2328861,3.40589508 C31.2558863,3.31096619 31.2098859,3.26350174 31.117885,3.26350174 L28.7718616,3.26350174 C28.6338602,3.26350174 28.5648595,3.16857285 28.5878598,3.02617951 L28.9788637,0.842814974 C29.0018639,0.700421634 29.0938648,0.605492741 29.2318662,0.605492741 L37.0979446,0.605492741 C37.2359459,0.605492741 37.3279468,0.700421634 37.3049466,0.842814974 L36.9139427,3.02617951 C36.8909425,3.16857285 36.7759413,3.26350174 36.63794,3.26350174 L34.2919166,3.26350174 C34.1999157,3.26350174 34.1539152,3.31096619 34.130915,3.40589508 L31.8998928,16.5060823 C31.8768925,16.6484757 31.7848916,16.7434046 31.6468902,16.7434046 Z M36.290381,16.5060823 L38.9354073,0.842814974 C38.9584075,0.700421634 39.0504085,0.605492741 39.1884098,0.605492741 L45.7894756,0.605492741 C45.927477,0.605492741 46.0194779,0.700421634 45.9964777,0.842814974 L45.6054738,3.02617951 C45.5824735,3.16857285 45.4674724,3.26350174 45.329471,3.26350174 L41.5574334,3.26350174 C41.4884327,3.26350174 41.4194321,3.31096619 41.4194321,3.40589508 L40.7984259,7.13185413 C40.7754256,7.22678303 40.8214261,7.27424747 40.8904268,7.27424747 L44.1334591,7.27424747 C44.2714605,7.27424747 44.3404612,7.36917637 44.3174609,7.51156971 L43.9494573,9.67120202 C43.926457,9.81359536 43.8114559,9.90852425 43.6964547,9.90852425 L40.4534224,9.90852425 C40.3614215,9.90852425 40.3154211,9.9559887 40.2924208,10.0509176 L39.6254142,13.9430022 C39.602414,14.0379311 39.6484144,14.0853955 39.7174151,14.0853955 L43.4894527,14.0853955 C43.6274541,14.0853955 43.6964547,14.1803244 43.6734545,14.3227178 L43.3054508,16.5060823 C43.2824506,16.6484757 43.1904497,16.7434046 43.0524483,16.7434046 L36.4743828,16.7434046 C36.3593816,16.7434046 36.2673807,16.6484757 36.290381,16.5060823 Z" id="STATE"></path>
                    <path d="M0.00358070917,35.5372493 L2.69617137,19.4627507 C2.71938336,19.3166189 2.81223131,19.2191977 2.95150324,19.2191977 L5.31912606,19.2191977 C5.52803396,19.2191977 5.6440939,19.2922636 5.66730589,19.4627507 L6.43330151,28.3037249 L6.52614946,28.3037249 L10.2864916,19.4627507 C10.3561276,19.2922636 10.4721875,19.2191977 10.6810954,19.2191977 L13.0951422,19.2191977 C13.2344141,19.2191977 13.3272621,19.3166189 13.3040501,19.4627507 L10.5882474,35.5372493 C10.5650354,35.6833811 10.4721875,35.7808023 10.3329156,35.7808023 L8.19741263,35.7808023 C8.0581407,35.7808023 7.96529274,35.6833811 7.98850473,35.5372493 L9.61334392,25.8925501 L9.49728398,25.8925501 L6.68863338,32.5902579 C6.61899741,32.7363897 6.52614946,32.8338109 6.36366554,32.8338109 L5.13343015,32.8338109 C4.97094623,32.8338109 4.90131027,32.7363897 4.90131027,32.5902579 L4.32101056,25.8925501 L4.20495062,25.8925501 L2.55689944,35.5372493 C2.53368745,35.6833811 2.4408395,35.7808023 2.32477955,35.7808023 L0.189276617,35.7808023 C0.0732166745,35.7808023 -0.0196312793,35.6833811 0.00358070917,35.5372493 Z M12.4645498,35.5372493 L18.4764548,19.4627507 C18.5228788,19.3166189 18.6157268,19.2191977 18.7549987,19.2191977 L21.3547414,19.2191977 C21.4940133,19.2191977 21.5868613,19.3166189 21.5868613,19.4627507 L22.120737,35.5372493 C22.120737,35.6833811 22.0511011,35.7808023 21.9118291,35.7808023 L19.4745703,35.7808023 C19.3120864,35.7808023 19.2424505,35.6833811 19.2424505,35.5372493 L19.2192385,32.4684814 L16.3641639,32.4684814 L15.3196244,35.5372493 C15.2732004,35.6833811 15.2035645,35.7808023 15.0410806,35.7808023 L12.6270338,35.7808023 C12.4877618,35.7808023 12.4181259,35.6833811 12.4645498,35.5372493 Z M17.1765835,30.1060172 L19.2424505,30.1060172 L19.2656624,24.2120344 L19.1960265,24.2120344 L17.1765835,30.1060172 Z M26.9165917,35.7808023 C27.0558637,35.7808023 27.1487116,35.6833811 27.1719236,35.5372493 L29.4234865,22.0931232 C29.4466985,21.995702 29.4931225,21.9469914 29.5859704,21.9469914 L31.9535932,21.9469914 C32.0928652,21.9469914 32.2089251,21.8495702 32.2321371,21.7034384 L32.6267409,19.4627507 C32.6499529,19.3166189 32.5571049,19.2191977 32.417833,19.2191977 L24.479333,19.2191977 C24.340061,19.2191977 24.2472131,19.3166189 24.2240011,19.4627507 L23.8293973,21.7034384 C23.8061853,21.8495702 23.8758213,21.9469914 24.0150932,21.9469914 L26.382716,21.9469914 C26.475564,21.9469914 26.5219879,21.995702 26.498776,22.0931232 L24.2472131,35.5372493 C24.2240011,35.6833811 24.316849,35.7808023 24.456121,35.7808023 L26.9165917,35.7808023 Z M36.7765286,35.7808023 L34.3160578,35.7808023 C34.1767859,35.7808023 34.083938,35.6833811 34.1071499,35.5372493 L36.3587128,22.0931232 C36.3819248,21.995702 36.3355008,21.9469914 36.2426529,21.9469914 L33.8750301,21.9469914 C33.7357581,21.9469914 33.6661222,21.8495702 33.6893342,21.7034384 L34.083938,19.4627507 C34.1071499,19.3166189 34.1999979,19.2191977 34.3392698,19.2191977 L42.2777699,19.2191977 C42.4170418,19.2191977 42.5098898,19.3166189 42.4866778,19.4627507 L42.092074,21.7034384 C42.068862,21.8495702 41.952802,21.9469914 41.8135301,21.9469914 L39.4459073,21.9469914 C39.3530593,21.9469914 39.3066354,21.995702 39.2834234,22.0931232 L37.0318605,35.5372493 C37.0086485,35.6833811 36.9158005,35.7808023 36.7765286,35.7808023 Z M41.4627712,35.5372493 L44.1321498,19.4627507 C44.1553618,19.3166189 44.2482098,19.2191977 44.3874817,19.2191977 L51.0493224,19.2191977 C51.1885943,19.2191977 51.2814423,19.3166189 51.2582303,19.4627507 L50.8636265,21.7034384 C50.8404145,21.8495702 50.7243546,21.9469914 50.5850826,21.9469914 L46.7783165,21.9469914 C46.7086806,21.9469914 46.6390446,21.995702 46.6390446,22.0931232 L46.0123209,25.9169054 C45.9891089,26.0143266 46.0355329,26.0630372 46.1051689,26.0630372 L49.3780592,26.0630372 C49.5173312,26.0630372 49.5869671,26.1604585 49.5637551,26.3065903 L49.1923633,28.5229226 C49.1691513,28.6690544 49.0530914,28.7664756 48.9370314,28.7664756 L45.6641411,28.7664756 C45.5712931,28.7664756 45.5248691,28.8151862 45.5016572,28.9126074 L44.8285095,32.9068768 C44.8052975,33.004298 44.8517215,33.0530086 44.9213574,33.0530086 L48.7281235,33.0530086 C48.8673955,33.0530086 48.9370314,33.1504298 48.9138195,33.2965616 L48.5424276,35.5372493 C48.5192157,35.6833811 48.4263677,35.7808023 48.2870958,35.7808023 L41.6484671,35.7808023 C41.5324071,35.7808023 41.4395592,35.6833811 41.4627712,35.5372493 Z M60.4733897,22.969914 C60.4733897,25.5028653 59.6145461,27.5487106 57.9897069,28.5472779 L58.8021265,35.5372493 C58.8253385,35.6590258 58.7789145,35.7808023 58.6628546,35.7808023 L56.1327479,35.7808023 C55.9934759,35.7808023 55.900628,35.7320917 55.877416,35.5859599 L55.3203283,29.2048711 L54.3222128,29.2048711 C54.2293648,29.2048711 54.1597288,29.2535817 54.1597288,29.3510029 L53.0919774,35.5372493 C53.0687654,35.6833811 52.9759174,35.7808023 52.8366455,35.7808023 L50.3761747,35.7808023 C50.2601148,35.7808023 50.1672668,35.6833811 50.1904788,35.5372493 L52.8830695,19.4627507 C52.9062815,19.3166189 52.9991294,19.2191977 53.1384014,19.2191977 L56.5737756,19.2191977 C58.9646104,19.2191977 60.4733897,20.1690544 60.4733897,22.969914 Z M57.5254672,23.3595989 C57.5254672,22.3123209 57.0612274,21.8739255 56.1791718,21.8739255 L55.5292362,21.8739255 C55.4363882,21.8739255 55.3899642,21.9226361 55.3667522,22.0200573 L54.6239686,26.5014327 C54.6239686,26.5988539 54.6471806,26.6475645 54.7400286,26.6475645 L55.6452961,26.6475645 C57.0148034,26.6475645 57.5254672,24.9426934 57.5254672,23.3595989 Z M68.8064935,29.9355301 C68.8064935,32.8338109 67.2280783,36 63.931976,36 C61.4482932,36 60.0091499,34.1733524 60.2644818,31.5429799 C60.2876938,31.3968481 60.3341178,31.2994269 60.4733897,31.2750716 L62.8642245,31.0071633 C63.0034964,30.982808 63.0963444,31.0802292 63.0731324,31.226361 C62.9802844,32.2005731 63.1427684,33.3696275 64.1408839,33.3696275 C65.4407552,33.3696275 65.904995,31.6891117 65.904995,30.6418338 C65.904995,29.6432665 65.7192991,29.1318052 64.7676076,28.717765 L64.1408839,28.4498567 C62.3071368,27.6461318 61.796473,26.6719198 61.796473,24.747851 C61.796473,21.9713467 63.1427684,19 66.4156587,19 C68.7600696,19 70.1295769,20.4369628 69.990305,23.1647564 C69.990305,23.3108883 69.874245,23.3839542 69.7581851,23.4326648 L67.5298342,23.6518625 C67.3905623,23.6762178 67.2977143,23.6031519 67.2977143,23.4570201 C67.3209263,22.2879656 67.0423824,21.6303725 66.1835389,21.6303725 C65.0925754,21.6303725 64.6515476,23.0429799 64.6515476,23.9928367 C64.6515476,24.8452722 64.7676076,25.3567335 65.6496631,25.7464183 L66.2763868,26.0143266 C67.9940739,26.7936963 68.8064935,27.5730659 68.8064935,29.9355301 Z" id="MATTERS"></path>
                </g>
            </g>
        </g>
    </g>
</svg>